# xmcd CD database file
#
# Track frame offsets:
#	150
#	2754
#	14976
#	25064
#	41092
#	56997
#	78599
#	86922
#	99042
#	121161
#	137121
#	150599
#	165696
#	183438
#	202850
#	219037
#	238237
#	258345
#	278962
#	294556
#
# Disc length: 4174 seconds
#
# Revision: 1
# Processed by: cddbd v1.5.1PL0 Copyright (c) Steve Scherf et al.
# Submitted via: CDex 1.51
#
DISCID=17104c14
DTITLE=Various Artist - Souvenirs De Tunisie
DYEAR=1900
DGENRE=New Age
TTITLE0=Mini-Disco Intro - Kinder Disco
TTITLE1=Dance des Canards - Ententanz
TTITLE2=Agadou
TTITLE3=Veo-Veo
TTITLE4=Superman
TTITLE5=Hands Up
TTITLE6=Ramzamzam
TTITLE7=Bouki - Bouki
TTITLE8=I'm the Music Man
TTITLE9=The Clap
TTITLE10=Le Train - Der Zug
TTITLE11=La Bomba
TTITLE12=La Colita
TTITLE13=Sidi Mansour
TTITLE14=DJ. Casper - Cha - Cha
TTITLE15=Aventura - Salsa 2005
TTITLE16=Sauvemente - Salsa 2005
TTITLE17=Algo Tu Cara - Salsa 2005
TTITLE18=Zaama Zaama
TTITLE19=Nancy: Orientale
EXTD=
EXTT0=
EXTT1=
EXTT2=
EXTT3=
EXTT4=
EXTT5=
EXTT6=
EXTT7=
EXTT8=
EXTT9=
EXTT10=
EXTT11=
EXTT12=
EXTT13=
EXTT14=
EXTT15=
EXTT16=
EXTT17=
EXTT18=
EXTT19=
PLAYORDER=
